<svg xmlns="http://www.w3.org/2000/svg" width="32" height="32" viewBox="0 0 32 32" fill="none">
  <rect width="32" height="32" rx="8" fill="#0f1117"/>
  <rect x="1" y="1" width="30" height="30" rx="7" stroke="url(#border)" stroke-width="1.5" fill="none"/>
  <path d="M8 10.5C8 9.67 8.67 9 9.5 9H15L17 12H22.5C23.33 12 24 12.67 24 13.5V21.5C24 22.33 23.33 23 22.5 23H9.5C8.67 23 8 22.33 8 21.5V10.5Z" fill="url(#folder)"/>
  <circle cx="21" cy="11" r="5" fill="#0f1117"/>
  <path d="M21 7.5V11H24.5" stroke="url(#spark)" stroke-width="1.5" stroke-linecap="round"/>
  <circle cx="21" cy="11" r="4" stroke="url(#spark)" stroke-width="1.2" fill="none" opacity="0.3"/>
  <defs>
    <linearGradient id="folder" x1="8" y1="9" x2="24" y2="23" gradientUnits="userSpaceOnUse">
      <stop stop-color="#6366f1"/>
      <stop offset="1" stop-color="#8b5cf6"/>
    </linearGradient>
    <linearGradient id="spark" x1="18" y1="7" x2="25" y2="14" gradientUnits="userSpaceOnUse">
      <stop stop-color="#818cf8"/>
      <stop offset="1" stop-color="#c084fc"/>
    </linearGradient>
    <linearGradient id="border" x1="0" y1="0" x2="32" y2="32" gradientUnits="userSpaceOnUse">
      <stop stop-color="#6366f1" stop-opacity="0.3"/>
      <stop offset="1" stop-color="#8b5cf6" stop-opacity="0.1"/>
    </linearGradient>
  </defs>
</svg>
